<svg width="93" height="75" viewBox="0 0 93 75" fill="none" xmlns="http://www.w3.org/2000/svg">
<g clip-path="url(#clip0_951_19926)">
<path d="M78.5686 47.873H14.4307V56.6496H78.5686V47.873Z" fill="#848688"/>
<path d="M54.5312 1.60618V10.3828H8.83284V65.4361H81.7898V38.3084H91.4105V67.8297C91.4607 73.2724 90.3436 75.0761 84.9967 75.0105H5.62594C0.952934 74.3287 -0.140844 72.6415 0.0138675 67.8297V10.3828C0.238603 3.08282 2.16772 1.44523 8.83284 1.60618H54.5312Z" fill="#848688"/>
<path d="M21.6608 20.7559H14.4453L20.859 42.2984H29.678L36.0918 20.7559H29.678L25.6694 35.1176L21.6608 20.7559Z" fill="#848688"/>
<path d="M40.1004 20.7559L34.4883 42.2984H40.9021L41.7038 37.5112H47.3159L48.9193 42.2984H55.3333L49.721 20.7559H40.1004Z" fill="#848688"/>
<path d="M44.0947 26.3301L42.4912 31.9152H44.8964H47.3016L45.6981 26.3301H44.0947Z" stroke="white"/>
<path d="M69.7505 23.9361H57.7246V14.3617H69.7505V1.5957H80.1729V14.3617H91.397V23.9361H80.4153V35.9042H69.7505V23.9361Z" fill="#848688" stroke="#848688"/>
<path d="M44.8965 27.127L44.0947 31.1163H45.6982L44.8965 27.127Z" stroke="white"/>
</g>
<defs>
<clipPath id="clip0_951_19926">
<rect width="93" height="75" fill="white"/>
</clipPath>
</defs>
</svg>
