<svg width="48" height="46" viewBox="0 0 48 46" fill="none" xmlns="http://www.w3.org/2000/svg">
<path d="M43.9981 27.9995C44.9612 28 45.8871 28.371 46.5841 29.0356C47.2811 29.7001 47.6957 30.6074 47.742 31.5693C47.7882 32.5312 47.4627 33.4741 46.8327 34.2025C46.2028 34.931 45.3167 35.3891 44.3581 35.482L43.9981 35.4995H13.0506L16.6506 39.0995C17.3326 39.779 17.7271 40.6947 17.7525 41.657C17.7779 42.6193 17.4323 43.5545 16.7872 44.269C16.142 44.9835 15.2469 45.4226 14.287 45.4953C13.3271 45.568 12.376 45.2687 11.6306 44.6595L11.3456 44.402L1.77315 34.827C-0.661853 32.392 0.923147 28.2845 4.25065 28.0145L4.60065 27.9995H43.9981ZM31.3481 1.59953C32.0041 0.943025 32.8801 0.553053 33.8069 0.505028C34.7337 0.457003 35.6454 0.754337 36.3657 1.33953L36.6507 1.59703L46.2231 11.172C48.6581 13.607 47.0731 17.7145 43.7456 17.9845L43.3956 17.9995H3.99815C3.03511 17.9991 2.10916 17.6281 1.41218 16.9635C0.715201 16.2989 0.300617 15.3917 0.254336 14.4297C0.208056 13.4678 0.533627 12.525 1.16359 11.7965C1.79354 11.0681 2.6796 10.61 3.63815 10.517L3.99815 10.4995H34.9456L31.3456 6.89953C30.6434 6.19641 30.2489 5.24329 30.2489 4.24953C30.2489 3.25578 30.6459 2.30266 31.3481 1.59953Z" fill="white"/>
</svg>
