<svg width="56" height="55" viewBox="0 0 56 55" fill="none" xmlns="http://www.w3.org/2000/svg">
<path fill-rule="evenodd" clip-rule="evenodd" d="M14.8966 10.6776C14.5512 10.1845 14.3062 9.6282 14.1758 9.04046C14.0454 8.45273 14.0321 7.84506 14.1366 7.25216C14.2411 6.65927 14.4613 6.09277 14.7848 5.58502C15.1083 5.07728 15.5286 4.63823 16.0218 4.29297L28.1012 21.5446L40.1806 4.29297C40.6738 4.63823 41.0941 5.07728 41.4176 5.58502C41.741 6.09277 41.9613 6.65927 42.0658 7.25216C42.1703 7.84506 42.1569 8.45273 42.0265 9.04046C41.8961 9.6282 41.6512 10.1845 41.3058 10.6776L30.8993 25.5413L35.9868 32.8059C38.0413 31.9365 40.3423 31.8462 42.4587 32.5518C44.575 33.2575 46.3614 34.7107 47.483 36.6391C48.6046 38.5675 48.9845 40.8387 48.5514 43.0272C48.1184 45.2156 46.9022 47.171 45.1306 48.527C43.3591 49.8829 41.154 50.5463 38.9284 50.3928C36.7028 50.2393 34.6096 49.2794 33.041 47.6931C31.4724 46.1068 30.5362 44.0029 30.4077 41.7758C30.2792 39.5486 30.9673 37.351 32.3431 35.5948L28.1035 29.5357L23.8593 35.5971C25.2351 37.3533 25.9232 39.5509 25.7947 41.778C25.6662 44.0052 24.73 46.1091 23.1614 47.6954C21.5928 49.2817 19.4996 50.2416 17.274 50.3951C15.0484 50.5486 12.8432 49.8852 11.0717 48.5293C9.30022 47.1733 8.08398 45.2179 7.65094 43.0295C7.2179 40.841 7.59779 38.5698 8.7194 36.6414C9.84102 34.713 11.6274 33.2598 13.7437 32.5541C15.86 31.8485 18.1611 31.9388 20.2156 32.8082L25.3031 25.5413L14.8966 10.6776ZM16.6429 36.6673C15.4273 36.6673 14.2615 37.1502 13.4019 38.0098C12.5424 38.8693 12.0595 40.0351 12.0595 41.2507C12.0595 42.4663 12.5424 43.632 13.4019 44.4916C14.2615 45.3511 15.4273 45.834 16.6429 45.834C17.8584 45.834 19.0242 45.3511 19.8838 44.4916C20.7433 43.632 21.2262 42.4663 21.2262 41.2507C21.2262 40.0351 20.7433 38.8693 19.8838 38.0098C19.0242 37.1502 17.8584 36.6673 16.6429 36.6673ZM39.5595 36.6673C38.3439 36.6673 37.1782 37.1502 36.3186 38.0098C35.4591 38.8693 34.9762 40.0351 34.9762 41.2507C34.9762 42.4663 35.4591 43.632 36.3186 44.4916C37.1782 45.3511 38.3439 45.834 39.5595 45.834C40.7751 45.834 41.9409 45.3511 42.8004 44.4916C43.66 43.632 44.1429 42.4663 44.1429 41.2507C44.1429 40.0351 43.66 38.8693 42.8004 38.0098C41.9409 37.1502 40.7751 36.6673 39.5595 36.6673Z" fill="currentColor"/>
</svg>
