<svg width="47" height="40" viewBox="0 0 47 40" fill="none" xmlns="http://www.w3.org/2000/svg">
<path d="M28.4806 7.74935C28.4806 6.53377 27.9977 5.36798 27.1381 4.50844C26.2786 3.6489 25.1128 3.16602 23.8972 3.16602C22.6817 3.16602 21.5159 3.6489 20.6563 4.50844C19.7968 5.36798 19.3139 6.53377 19.3139 7.74935C19.3139 11.5696 20.8493 14.6243 23.8972 16.916H23.8789M23.8789 16.916L42.1458 27.0635C42.8606 27.4605 43.4563 28.0415 43.8709 28.7463C44.2856 29.4511 44.5041 30.2539 44.5039 31.0716V32.9577C44.5039 34.1733 44.021 35.339 43.1615 36.1986C42.3019 37.0581 41.1361 37.541 39.9206 37.541H7.83724C6.62166 37.541 5.45588 37.0581 4.59633 36.1986C3.73679 35.339 3.25391 34.1733 3.25391 32.9577V31.0716C3.25369 30.2539 3.47224 29.4511 3.88688 28.7463C4.30153 28.0415 4.89717 27.4605 5.61203 27.0635L23.8789 16.916Z" stroke="currentColor" stroke-width="4.58333" stroke-linecap="round" stroke-linejoin="round"/>
</svg>
