<svg width="48" height="49" viewBox="0 0 48 49" fill="none" xmlns="http://www.w3.org/2000/svg">
<path d="M1.79859 3.74167C2.33828 1.68261 4.21516 0.438232 6.18828 0.438232C7.40516 0.438232 8.51203 0.89542 9.35422 1.64136C10.2828 0.862465 11.456 0.435547 12.668 0.435547C13.8799 0.435547 15.0532 0.862465 15.9817 1.64136C16.853 0.864419 17.9803 0.436054 19.1477 0.438232C21.1208 0.438232 22.9977 1.68261 23.5373 3.74167C24.053 5.70792 24.6992 8.87729 24.6992 12.4695C24.6991 14.4755 24.1975 16.4496 23.2399 18.2122C22.2823 19.9749 20.8992 21.4702 19.2164 22.562C18.2848 23.1704 17.8242 23.9542 17.8242 24.6245V25.9857C17.8242 26.0636 17.8288 26.1393 17.838 26.2126C17.9548 27.0651 18.3777 30.231 18.773 33.5139C19.1614 36.7348 19.543 40.2479 19.543 41.6882C19.543 43.5116 18.8186 45.2603 17.5293 46.5496C16.24 47.8389 14.4913 48.5632 12.668 48.5632C10.8446 48.5632 9.09592 47.8389 7.80661 46.5496C6.5173 45.2603 5.79297 43.5116 5.79297 41.6882C5.79297 40.2445 6.17453 36.7382 6.56297 33.5139C6.95828 30.231 7.38109 27.0651 7.49797 26.2126L7.51172 25.9857V24.6245C7.51172 23.9542 7.05109 23.1704 6.11953 22.562C4.43672 21.4702 3.05361 19.9749 2.09603 18.2122C1.13846 16.4496 0.636805 14.4755 0.636719 12.4695C0.636719 8.87729 1.28297 5.70792 1.79859 3.74167ZM17.8242 14.1882C17.8242 14.6441 17.6431 15.0812 17.3208 15.4036C16.9985 15.7259 16.5613 15.907 16.1055 15.907C15.6496 15.907 15.2125 15.7259 14.8901 15.4036C14.5678 15.0812 14.3867 14.6441 14.3867 14.1882V5.59448C14.3867 5.13864 14.2056 4.70147 13.8833 4.37914C13.561 4.05681 13.1238 3.87573 12.668 3.87573C12.2121 3.87573 11.775 4.05681 11.4526 4.37914C11.1303 4.70147 10.9492 5.13864 10.9492 5.59448V14.1882C10.9492 14.6441 10.7681 15.0812 10.4458 15.4036C10.1235 15.7259 9.68631 15.907 9.23047 15.907C8.77463 15.907 8.33746 15.7259 8.01513 15.4036C7.6928 15.0812 7.51172 14.6441 7.51172 14.1882V5.19917C7.51172 4.84817 7.37229 4.51155 7.12409 4.26336C6.8759 4.01516 6.53928 3.87573 6.18828 3.87573C5.61766 3.87573 5.22578 4.21604 5.12266 4.61479C4.44523 7.17871 4.09299 9.81765 4.07422 12.4695C4.07405 13.903 4.43252 15.3139 5.11696 16.5735C5.80141 17.8331 6.79009 18.9015 7.99297 19.6814C9.50203 20.661 10.9492 22.3832 10.9492 24.6245V25.9857C10.9492 26.2149 10.9343 26.4441 10.9045 26.6732C10.7877 27.5189 10.3683 30.6642 9.97641 33.9264C9.57766 37.2435 9.23047 40.5057 9.23047 41.6882C9.23047 42.5999 9.59263 43.4743 10.2373 44.1189C10.8819 44.7636 11.7563 45.1257 12.668 45.1257C13.5797 45.1257 14.454 44.7636 15.0986 44.1189C15.7433 43.4743 16.1055 42.5999 16.1055 41.6882C16.1055 40.5057 15.7617 37.2435 15.3595 33.9229C14.9677 30.6642 14.5483 27.5189 14.4314 26.6698C14.4053 26.4438 14.3903 26.2166 14.3867 25.9892V24.6279C14.3867 22.3867 15.8339 20.6645 17.343 19.6848C18.5463 18.9046 19.5353 17.8357 20.2198 16.5754C20.9043 15.3152 21.2625 13.9036 21.2617 12.4695C21.2617 9.26573 20.6842 6.40573 20.2133 4.61479C20.1102 4.21948 19.7148 3.87573 19.1477 3.87573C18.7967 3.87573 18.46 4.01516 18.2118 4.26336C17.9637 4.51155 17.8242 4.84817 17.8242 5.19917V14.1882ZM28.1367 15.907C28.1367 11.8044 29.7665 7.86988 32.6674 4.96892C35.5684 2.06797 39.5029 0.438232 43.6055 0.438232C44.0613 0.438232 44.4985 0.619314 44.8208 0.941642C45.1431 1.26397 45.3242 1.70114 45.3242 2.15698V22.6892L45.3895 23.2976C45.663 25.8631 45.9254 28.4298 46.1767 30.9976C46.5995 35.3151 47.043 40.1551 47.043 41.6882C47.043 43.5116 46.3186 45.2603 45.0293 46.5496C43.74 47.8389 41.9913 48.5632 40.168 48.5632C38.3446 48.5632 36.5959 47.8389 35.3066 46.5496C34.0173 45.2603 33.293 43.5116 33.293 41.6882C33.293 40.1551 33.7364 35.3151 34.1592 30.9976C34.3758 28.8079 34.5923 26.711 34.7539 25.1573L34.8227 24.5007H31.5742C30.6625 24.5007 29.7882 24.1386 29.1435 23.4939C28.4989 22.8493 28.1367 21.9749 28.1367 21.0632V15.907ZM38.4389 22.9642L38.3667 23.6585C38.098 26.2164 37.8368 28.7751 37.583 31.3345C37.1464 35.7585 36.7305 40.3751 36.7305 41.6882C36.7305 42.5999 37.0926 43.4743 37.7373 44.1189C38.3819 44.7636 39.2563 45.1257 40.168 45.1257C41.0797 45.1257 41.954 44.7636 42.5986 44.1189C43.2433 43.4743 43.6055 42.5999 43.6055 41.6882C43.6055 40.3717 43.1895 35.7585 42.753 31.3345C42.5008 28.7749 42.2396 26.2163 41.9692 23.6585L41.897 22.9676L41.8867 22.782V3.99604C39.0228 4.40942 36.4037 5.84114 34.5097 8.02876C32.6156 10.2164 31.5735 13.0133 31.5742 15.907V21.0632H36.7305C36.9715 21.0633 37.2098 21.1141 37.4299 21.2123C37.6501 21.3105 37.8471 21.4538 38.0082 21.6331C38.1693 21.8124 38.2909 22.0235 38.3651 22.2528C38.4393 22.4821 38.4645 22.7245 38.4389 22.9642Z" fill="currentColor"/>
</svg>
