<svg width="51" height="25" viewBox="0 0 51 25" fill="none" xmlns="http://www.w3.org/2000/svg">
<path d="M0.5 25V21.7187C0.5 20.2257 1.26389 19.0104 2.79167 18.0729C4.31944 17.1354 6.33333 16.6667 8.83333 16.6667C9.28472 16.6667 9.71875 16.6757 10.1354 16.6937C10.5521 16.7118 10.9514 16.7549 11.3333 16.8229C10.8472 17.5521 10.4826 18.316 10.2396 19.1146C9.99653 19.9132 9.875 20.7465 9.875 21.6146V25H0.5ZM13 25V21.6146C13 20.5035 13.3042 19.4875 13.9125 18.5667C14.5208 17.6458 15.3799 16.8389 16.4896 16.1458C17.5993 15.4528 18.9278 14.9319 20.475 14.5833C22.0222 14.2347 23.6972 14.0611 25.5 14.0625C27.3403 14.0625 29.0333 14.2361 30.5792 14.5833C32.125 14.9306 33.4528 15.4514 34.5625 16.1458C35.6722 16.8403 36.5229 17.6479 37.1146 18.5688C37.7062 19.4896 38.0014 20.5049 38 21.6146V25H13ZM41.125 25V21.6146C41.125 20.7118 41.0125 19.8611 40.7875 19.0625C40.5625 18.2639 40.2236 17.5174 39.7708 16.8229C40.1528 16.7535 40.5437 16.7104 40.9437 16.6937C41.3438 16.6771 41.7514 16.6681 42.1667 16.6667C44.6667 16.6667 46.6806 17.1271 48.2083 18.0479C49.7361 18.9688 50.5 20.1924 50.5 21.7187V25H41.125ZM8.83333 14.5833C7.6875 14.5833 6.70694 14.1757 5.89167 13.3604C5.07639 12.5451 4.66806 11.5639 4.66667 10.4167C4.66667 9.23611 5.075 8.24653 5.89167 7.44792C6.70833 6.6493 7.68889 6.25 8.83333 6.25C10.0139 6.25 11.0035 6.6493 11.8021 7.44792C12.6007 8.24653 13 9.23611 13 10.4167C13 11.5625 12.6007 12.5437 11.8021 13.3604C11.0035 14.1771 10.0139 14.5847 8.83333 14.5833ZM42.1667 14.5833C41.0208 14.5833 40.0403 14.1757 39.225 13.3604C38.4097 12.5451 38.0014 11.5639 38 10.4167C38 9.23611 38.4083 8.24653 39.225 7.44792C40.0417 6.6493 41.0222 6.25 42.1667 6.25C43.3472 6.25 44.3368 6.6493 45.1354 7.44792C45.934 8.24653 46.3333 9.23611 46.3333 10.4167C46.3333 11.5625 45.934 12.5437 45.1354 13.3604C44.3368 14.1771 43.3472 14.5847 42.1667 14.5833ZM25.5 12.5C23.7639 12.5 22.2882 11.8924 21.0729 10.6771C19.8576 9.46181 19.25 7.98611 19.25 6.25C19.25 4.47917 19.8576 2.99514 21.0729 1.79792C22.2882 0.600694 23.7639 0.00138889 25.5 0C27.2708 0 28.7556 0.599305 29.9542 1.79792C31.1528 2.99653 31.7514 4.48056 31.75 6.25C31.75 7.98611 31.1514 9.46181 29.9542 10.6771C28.7569 11.8924 27.2722 12.5 25.5 12.5Z" fill="currentColor"/>
</svg>
