<svg width="51" height="51" viewBox="0 0 51 51" fill="none" xmlns="http://www.w3.org/2000/svg">
<path fill-rule="evenodd" clip-rule="evenodd" d="M0.5 25.5C0.499265 21.1289 1.64508 16.834 3.82311 13.0438C6.00114 9.25368 9.13524 6.10084 12.9127 3.89987C16.6901 1.69891 20.9788 0.526785 25.3509 0.500454C29.7229 0.474123 34.0255 1.5945 37.8292 3.74981C38.2131 3.96797 38.5103 4.31161 38.6707 4.72298C38.8312 5.13436 38.8451 5.58841 38.7102 6.00884C38.5753 6.42928 38.2997 6.79048 37.9299 7.03176C37.56 7.27305 37.1183 7.37971 36.6791 7.33382C34.1328 7.06637 31.5587 7.33695 29.1237 8.12803C26.6887 8.91911 24.4472 10.213 22.5446 11.9259C20.6419 13.6387 19.1206 15.7322 18.0792 18.0707C17.0379 20.4091 16.4998 22.9403 16.4998 25.5C16.4998 28.0597 17.0379 30.5909 18.0792 32.9293C19.1206 35.2678 20.6419 37.3613 22.5446 39.0741C24.4472 40.787 26.6887 42.0809 29.1237 42.872C31.5587 43.6631 34.1328 43.9336 36.6791 43.6662C37.1183 43.6203 37.56 43.727 37.9299 43.9682C38.2997 44.2095 38.5753 44.5707 38.7102 44.9912C38.8451 45.4116 38.8312 45.8656 38.6707 46.277C38.5103 46.6884 38.2131 47.032 37.8292 47.2502C34.0255 49.4055 29.7229 50.5259 25.3509 50.4995C20.9788 50.4732 16.6901 49.3011 12.9127 47.1001C9.13524 44.8992 6.00114 41.7463 3.82311 37.9562C1.64508 34.166 0.499265 29.8711 0.5 25.5ZM40.2678 14.8864C40.0674 14.4876 39.7599 14.1524 39.3797 13.9184C38.9995 13.6845 38.5617 13.561 38.1152 13.5618C37.6688 13.5626 37.2314 13.6876 36.8521 13.923C36.4728 14.1583 36.1665 14.4945 35.9675 14.8941L33.325 20.2009H28.1709C27.6992 20.2022 27.2383 20.3423 26.8457 20.6036C26.453 20.8649 26.1459 21.2359 25.9626 21.6704C25.7793 22.105 25.728 22.5838 25.8149 23.0473C25.9018 23.5108 26.1232 23.9385 26.4515 24.2771L30.5787 28.5264L29.4787 34.6523C29.3978 35.104 29.448 35.5694 29.6234 35.9935C29.7987 36.4176 30.0917 36.7826 30.4679 37.0455C30.8441 37.3083 31.2877 37.4581 31.7463 37.4769C32.2049 37.4958 32.6593 37.383 33.0558 37.1519L38.1446 34.1793L43.5141 37.1788C43.9177 37.4044 44.3779 37.5088 44.8394 37.4796C45.3009 37.4503 45.7442 37.2886 46.116 37.0138C46.4879 36.739 46.7726 36.3628 46.9361 35.9303C47.0995 35.4978 47.1347 35.0274 47.0374 34.5754L45.7296 28.4957L49.8222 24.281C50.1507 23.9421 50.3722 23.5141 50.459 23.0502C50.5458 22.5864 50.4941 22.1072 50.3104 21.6725C50.1266 21.2378 49.8189 20.8669 49.4257 20.6058C49.0324 20.3448 48.571 20.2053 48.099 20.2047H42.941L40.2678 14.8864ZM36.9637 23.6695L38.1253 21.3353L39.3062 23.6811C39.508 24.0772 39.8151 24.4102 40.1937 24.6436C40.5722 24.8769 41.0077 25.0016 41.4524 25.0039H42.4063L41.3794 26.0614C41.1048 26.3461 40.9041 26.6937 40.7948 27.0737C40.6855 27.4538 40.671 27.8549 40.7524 28.2418L41.214 30.3838L39.2869 29.3071C38.9212 29.105 38.5094 29.0009 38.0915 29.005C37.6737 29.009 37.2639 29.121 36.9022 29.3301L35.1328 30.3646L35.5252 28.1611C35.5915 27.7856 35.5683 27.3997 35.4573 27.0348C35.3464 26.67 35.1509 26.3365 34.8867 26.0614L33.8558 25.0039H34.8136C35.2608 25.0019 35.6988 24.8762 36.0789 24.6406C36.4591 24.4051 36.7667 24.069 36.9676 23.6695" fill="#848688"/>
</svg>
