<svg width="55" height="55" viewBox="0 0 55 55" fill="none" xmlns="http://www.w3.org/2000/svg">
<path d="M35.0625 33C35.0625 33.7293 34.7728 34.4288 34.257 34.9445C33.7413 35.4603 33.0418 35.75 32.3125 35.75C31.5832 35.75 30.8837 35.4603 30.368 34.9445C29.8522 34.4288 29.5625 33.7293 29.5625 33C29.5625 32.2707 29.8522 31.5712 30.368 31.0555C30.8837 30.5397 31.5832 30.25 32.3125 30.25C33.0418 30.25 33.7413 30.5397 34.257 31.0555C34.7728 31.5712 35.0625 32.2707 35.0625 33ZM25.4375 33C25.4375 33.7293 25.1478 34.4288 24.632 34.9445C24.1163 35.4603 23.4168 35.75 22.6875 35.75C21.9582 35.75 21.2587 35.4603 20.743 34.9445C20.2272 34.4288 19.9375 33.7293 19.9375 33C19.9375 32.2707 20.2272 31.5712 20.743 31.0555C21.2587 30.5397 21.9582 30.25 22.6875 30.25C23.4168 30.25 24.1163 30.5397 24.632 31.0555C25.1478 31.5712 25.4375 32.2707 25.4375 33Z" fill="currentColor"/>
<path fill-rule="evenodd" clip-rule="evenodd" d="M27.5 19.25C28.5834 19.25 29.6562 19.0366 30.6571 18.622C31.6581 18.2074 32.5675 17.5997 33.3336 16.8336C34.0997 16.0675 34.7074 15.1581 35.122 14.1571C35.5366 13.1562 35.75 12.0834 35.75 11C35.75 9.91659 35.5366 8.8438 35.122 7.84286C34.7074 6.84193 34.0997 5.93245 33.3336 5.16637C32.5675 4.40029 31.6581 3.7926 30.6571 3.37799C29.6562 2.96339 28.5834 2.75 27.5 2.75C25.312 2.75 23.2135 3.61919 21.6664 5.16637C20.1192 6.71354 19.25 8.81196 19.25 11C19.25 13.188 20.1192 15.2865 21.6664 16.8336C23.2135 18.3808 25.312 19.25 27.5 19.25ZM27.5 5.5C28.9587 5.5 30.3576 6.07946 31.3891 7.11091C32.4205 8.14236 33 9.54131 33 11C33 12.4587 32.4205 13.8576 31.3891 14.8891C30.3576 15.9205 28.9587 16.5 27.5 16.5C26.0413 16.5 24.6424 15.9205 23.6109 14.8891C22.5795 13.8576 22 12.4587 22 11C22 9.54131 22.5795 8.14236 23.6109 7.11091C24.6424 6.07946 26.0413 5.5 27.5 5.5ZM28.875 38.5H26.125C25.031 38.5 23.9818 38.9346 23.2082 39.7082C22.4346 40.4818 22 41.531 22 42.625V48.125C22 49.219 22.4346 50.2682 23.2082 51.0418C23.9818 51.8154 25.031 52.25 26.125 52.25H28.875C29.969 52.25 31.0182 51.8154 31.7918 51.0418C32.5654 50.2682 33 49.219 33 48.125V42.625C33 41.531 32.5654 40.4818 31.7918 39.7082C31.0182 38.9346 29.969 38.5 28.875 38.5ZM24.75 42.625C24.75 42.2603 24.8949 41.9106 25.1527 41.6527C25.4106 41.3949 25.7603 41.25 26.125 41.25H28.875C29.2397 41.25 29.5894 41.3949 29.8473 41.6527C30.1051 41.9106 30.25 42.2603 30.25 42.625V48.125C30.25 48.4897 30.1051 48.8394 29.8473 49.0973C29.5894 49.3551 29.2397 49.5 28.875 49.5H26.125C25.7603 49.5 25.4106 49.3551 25.1527 49.0973C24.8949 48.8394 24.75 48.4897 24.75 48.125V42.625Z" fill="currentColor"/>
<path d="M42.625 10.3125C42.078 10.3125 41.5534 10.0952 41.1666 9.70841C40.7798 9.32161 40.5625 8.79701 40.5625 8.25C40.5625 7.70299 40.7798 7.17839 41.1666 6.79159C41.5534 6.4048 42.078 6.1875 42.625 6.1875H48.125C48.672 6.1875 49.1966 6.4048 49.5834 6.79159C49.9702 7.17839 50.1875 7.70299 50.1875 8.25C50.1875 8.79701 49.9702 9.32161 49.5834 9.70841C49.1966 10.0952 48.672 10.3125 48.125 10.3125H42.625ZM6.875 10.3125C6.32799 10.3125 5.80339 10.0952 5.41659 9.70841C5.0298 9.32161 4.8125 8.79701 4.8125 8.25C4.8125 7.70299 5.0298 7.17839 5.41659 6.79159C5.80339 6.4048 6.32799 6.1875 6.875 6.1875H12.375C12.922 6.1875 13.4466 6.4048 13.8334 6.79159C14.2202 7.17839 14.4375 7.70299 14.4375 8.25C14.4375 8.79701 14.2202 9.32161 13.8334 9.70841C13.4466 10.0952 12.922 10.3125 12.375 10.3125H6.875Z" fill="currentColor"/>
<path d="M11.293 9.25148L12.1235 6.58398L22.293 8.62448L21.4625 11.292L11.293 9.25148ZM32.71 8.62448L33.5405 11.292L43.71 9.25148L42.8795 6.58398L32.71 8.62448Z" fill="currentColor"/>
<path fill-rule="evenodd" clip-rule="evenodd" d="M39.875 28.875C39.875 27.2499 39.5549 25.6407 38.933 24.1393C38.3111 22.6379 37.3996 21.2737 36.2504 20.1246C35.1013 18.9754 33.7371 18.0639 32.2357 17.442C30.7343 16.8201 29.1251 16.5 27.5 16.5C25.8749 16.5 24.2657 16.8201 22.7643 17.442C21.2629 18.0639 19.8987 18.9754 18.7496 20.1246C17.6004 21.2737 16.6889 22.6379 16.067 24.1393C15.4451 25.6407 15.125 27.2499 15.125 28.875V35.75C15.125 37.2087 15.7045 38.6076 16.7359 39.6391C17.7674 40.6705 19.1663 41.25 20.625 41.25H34.375C35.8337 41.25 37.2326 40.6705 38.2641 39.6391C39.2955 38.6076 39.875 37.2087 39.875 35.75V28.875ZM17.875 28.875C17.875 27.611 18.124 26.3594 18.6077 25.1917C19.0914 24.0239 19.8003 22.9629 20.6941 22.0691C21.5879 21.1753 22.6489 20.4664 23.8167 19.9827C24.9844 19.499 26.236 19.25 27.5 19.25C28.764 19.25 30.0156 19.499 31.1833 19.9827C32.3511 20.4664 33.4121 21.1753 34.3059 22.0691C35.1997 22.9629 35.9086 24.0239 36.3923 25.1917C36.876 26.3594 37.125 27.611 37.125 28.875V35.75C37.125 36.4793 36.8353 37.1788 36.3195 37.6945C35.8038 38.2103 35.1043 38.5 34.375 38.5H20.625C19.8957 38.5 19.1962 38.2103 18.6805 37.6945C18.1647 37.1788 17.875 36.4793 17.875 35.75V28.875Z" fill="currentColor"/>
<path d="M35.0625 34.375C35.0625 35.1043 34.7728 35.8038 34.257 36.3195C33.7413 36.8353 33.0418 37.125 32.3125 37.125C31.5832 37.125 30.8837 36.8353 30.368 36.3195C29.8522 35.8038 29.5625 35.1043 29.5625 34.375C29.5625 33.6457 29.8522 32.9462 30.368 32.4305C30.8837 31.9147 31.5832 31.625 32.3125 31.625C33.0418 31.625 33.7413 31.9147 34.257 32.4305C34.7728 32.9462 35.0625 33.6457 35.0625 34.375ZM25.4375 34.375C25.4375 35.1043 25.1478 35.8038 24.632 36.3195C24.1163 36.8353 23.4168 37.125 22.6875 37.125C21.9582 37.125 21.2587 36.8353 20.743 36.3195C20.2272 35.8038 19.9375 35.1043 19.9375 34.375C19.9375 33.6457 20.2272 32.9462 20.743 32.4305C21.2587 31.9147 21.9582 31.625 22.6875 31.625C23.4168 31.625 24.1163 31.9147 24.632 32.4305C25.1478 32.9462 25.4375 33.6457 25.4375 34.375Z" fill="currentColor"/>
<path fill-rule="evenodd" clip-rule="evenodd" d="M27.5 22C30.0527 22 32.5009 20.9859 34.3059 19.1809C36.1109 17.3759 37.125 14.9277 37.125 12.375C37.125 9.82229 36.1109 7.37413 34.3059 5.5691C32.5009 3.76406 30.0527 2.75 27.5 2.75C24.9473 2.75 22.4991 3.76406 20.6941 5.5691C18.8891 7.37413 17.875 9.82229 17.875 12.375C17.875 14.9277 18.8891 17.3759 20.6941 19.1809C22.4991 20.9859 24.9473 22 27.5 22ZM27.5 8.25C28.594 8.25 29.6432 8.6846 30.4168 9.45818C31.1904 10.2318 31.625 11.281 31.625 12.375C31.625 13.469 31.1904 14.5182 30.4168 15.2918C29.6432 16.0654 28.594 16.5 27.5 16.5C26.406 16.5 25.3568 16.0654 24.5832 15.2918C23.8096 14.5182 23.375 13.469 23.375 12.375C23.375 11.281 23.8096 10.2318 24.5832 9.45818C25.3568 8.6846 26.406 8.25 27.5 8.25Z" fill="currentColor"/>
<path d="M27.5 38.5C28.9587 38.5 30.3576 39.0795 31.3891 40.1109C32.4205 41.1424 33 42.5413 33 44V48.125C33 49.5837 32.4205 50.9826 31.3891 52.0141C30.3576 53.0455 28.9587 53.625 27.5 53.625C26.0413 53.625 24.6424 53.0455 23.6109 52.0141C22.5795 50.9826 22 49.5837 22 48.125V44C22 42.5413 22.5795 41.1424 23.6109 40.1109C24.6424 39.0795 26.0413 38.5 27.5 38.5Z" fill="currentColor"/>
<path fill-rule="evenodd" clip-rule="evenodd" d="M41.25 30.25C41.25 26.6033 39.8013 23.1059 37.2227 20.5273C34.6441 17.9487 31.1467 16.5 27.5 16.5C23.8533 16.5 20.3559 17.9487 17.7773 20.5273C15.1987 23.1059 13.75 26.6033 13.75 30.25V37.125C13.75 38.9484 14.4743 40.697 15.7636 41.9864C17.053 43.2757 18.8016 44 20.625 44H34.375C36.1984 44 37.947 43.2757 39.2364 41.9864C40.5257 40.697 41.25 38.9484 41.25 37.125V30.25ZM19.25 30.25C19.25 28.062 20.1192 25.9635 21.6664 24.4164C23.2135 22.8692 25.312 22 27.5 22C29.688 22 31.7865 22.8692 33.3336 24.4164C34.8808 25.9635 35.75 28.062 35.75 30.25V37.125C35.75 37.4897 35.6051 37.8394 35.3473 38.0973C35.0894 38.3551 34.7397 38.5 34.375 38.5H20.625C20.2603 38.5 19.9106 38.3551 19.6527 38.0973C19.3949 37.8394 19.25 37.4897 19.25 37.125V30.25Z" fill="currentColor"/>
<path d="M42.625 12.375C41.8957 12.375 41.1962 12.0853 40.6805 11.5695C40.1647 11.0538 39.875 10.3543 39.875 9.625C39.875 8.89565 40.1647 8.19618 40.6805 7.68046C41.1962 7.16473 41.8957 6.875 42.625 6.875H48.125C48.8543 6.875 49.5538 7.16473 50.0695 7.68046C50.5853 8.19618 50.875 8.89565 50.875 9.625C50.875 10.3543 50.5853 11.0538 50.0695 11.5695C49.5538 12.0853 48.8543 12.375 48.125 12.375H42.625ZM6.875 12.375C6.14565 12.375 5.44618 12.0853 4.93046 11.5695C4.41473 11.0538 4.125 10.3543 4.125 9.625C4.125 8.89565 4.41473 8.19618 4.93046 7.68046C5.44618 7.16473 6.14565 6.875 6.875 6.875H12.375C13.1043 6.875 13.8038 7.16473 14.3195 7.68046C14.8353 8.19618 15.125 8.89565 15.125 9.625C15.125 10.3543 14.8353 11.0538 14.3195 11.5695C13.8038 12.0853 13.1043 12.375 12.375 12.375H6.875Z" fill="currentColor"/>
<path d="M9.37891 11.1262L10.6879 7.125L23.1289 9.49825L21.8172 13.5022L9.37891 11.1262ZM31.8739 9.49825L33.1857 13.5022L45.6239 11.1262L44.3149 7.125L31.8739 9.49825Z" fill="currentColor"/>
</svg>
