<svg width="56" height="55" viewBox="0 0 56 55" fill="none" xmlns="http://www.w3.org/2000/svg">
<path d="M28.2183 15.9737C28.2183 15.9737 21.1714 16.6749 17.4818 13.6018C13.7922 10.5264 14.6333 4.65284 14.6333 4.65284C14.6333 4.65284 21.6801 3.9516 25.372 7.02472C29.0616 10.1001 28.2183 15.9737 28.2183 15.9737Z" stroke="currentColor" stroke-width="4.58333" stroke-linecap="round" stroke-linejoin="round"/>
<path d="M44.3438 32.0841C44.9515 32.0841 45.5344 31.8427 45.9642 31.4129C46.394 30.9831 46.6354 30.4002 46.6354 29.7924V25.2091C46.6354 24.6013 46.394 24.0184 45.9642 23.5886C45.5344 23.1589 44.9515 22.9174 44.3438 22.9174H12.2604C11.6526 22.9174 11.0697 23.1589 10.64 23.5886C10.2102 24.0184 9.96875 24.6013 9.96875 25.2091V29.7924C9.96875 30.4002 10.2102 30.9831 10.64 31.4129C11.0697 31.8427 11.6526 32.0841 12.2604 32.0841M44.3438 32.0841H12.2604M44.3438 32.0841L39.7604 50.4174H16.8438L12.2604 32.0841M28.3846 15.9737C28.3846 15.9737 35.4315 16.6749 39.121 13.6018C42.8106 10.5264 41.9696 4.65284 41.9696 4.65284C41.9696 4.65284 34.9227 3.9516 31.2331 7.02472C27.5435 10.1001 28.3846 15.9737 28.3846 15.9737Z" stroke="currentColor" stroke-width="4.58333" stroke-linecap="round" stroke-linejoin="round"/>
</svg>
