<svg width="39" height="39" viewBox="0 0 39 39" fill="none" xmlns="http://www.w3.org/2000/svg">
<path d="M12 38.25C8.84028 38.25 6.175 37.1653 4.00417 34.9958C1.83333 32.8264 0.748612 30.1611 0.750001 27C0.750001 25.6806 0.975696 24.3958 1.42708 23.1458C1.87847 21.8958 2.52083 20.7674 3.35417 19.7604L10.75 10.8542L7.20833 3.77083C6.86111 3.07639 6.8875 2.39931 7.2875 1.73958C7.6875 1.07986 8.28611 0.75 9.08333 0.75H29.9167C30.7153 0.75 31.3146 1.07986 31.7146 1.73958C32.1146 2.39931 32.1403 3.07639 31.7917 3.77083L28.25 10.8542L35.6458 19.7604C36.4792 20.7674 37.1215 21.8958 37.5729 23.1458C38.0243 24.3958 38.25 25.6806 38.25 27C38.25 30.1597 37.1562 32.825 34.9687 34.9958C32.7812 37.1667 30.125 38.2514 27 38.25H12ZM19.5 27.8333C18.3542 27.8333 17.3736 27.4257 16.5583 26.6104C15.7431 25.7951 15.3347 24.8139 15.3333 23.6667C15.3319 22.5194 15.7403 21.5389 16.5583 20.725C17.3764 19.9111 18.3569 19.5028 19.5 19.5C20.6431 19.4972 21.6243 19.9056 22.4438 20.725C23.2632 21.5444 23.6708 22.525 23.6667 23.6667C23.6625 24.8083 23.2549 25.7896 22.4438 26.6104C21.6326 27.4312 20.6514 27.8389 19.5 27.8333ZM14.5521 9.08333H24.4479L26.5313 4.91667H12.4688L14.5521 9.08333ZM12 34.0833H27C28.9792 34.0833 30.6549 33.3979 32.0271 32.0271C33.3993 30.6562 34.0847 28.9806 34.0833 27C34.0833 26.1667 33.9354 25.3597 33.6396 24.5792C33.3438 23.7986 32.9361 23.0951 32.4167 22.4688L24.7604 13.25H14.2917L6.58333 22.4167C6.0625 23.0417 5.65486 23.7535 5.36042 24.5521C5.06597 25.3507 4.91806 26.1667 4.91667 27C4.91667 28.9792 5.60278 30.6549 6.975 32.0271C8.34722 33.3993 10.0222 34.0847 12 34.0833Z" fill="currentColor"/>
</svg>
